<mxfile host="Electron" modified="2023-11-12T21:53:18.622Z" agent="Mozilla/5.0 (Windows NT 10.0; Win64; x64) AppleWebKit/537.36 (KHTML, like Gecko) draw.io/22.0.3 Chrome/114.0.5735.289 Electron/25.8.4 Safari/537.36" etag="A0XrwuhnLTRQaOVqs6LI" version="22.0.3" type="device">
  <diagram id="C5RBs43oDa-KdzZeNtuy" name="Page-1">
    <mxGraphModel dx="1028" dy="606" grid="1" gridSize="10" guides="1" tooltips="1" connect="1" arrows="1" fold="1" page="1" pageScale="1" pageWidth="827" pageHeight="1169" math="0" shadow="0">
      <root>
        <mxCell id="WIyWlLk6GJQsqaUBKTNV-0" />
        <mxCell id="WIyWlLk6GJQsqaUBKTNV-1" parent="WIyWlLk6GJQsqaUBKTNV-0" />
        <mxCell id="U3sLYM4btcDTQjtSk9sM-18" style="edgeStyle=orthogonalEdgeStyle;rounded=0;orthogonalLoop=1;jettySize=auto;html=1;entryX=0.5;entryY=0;entryDx=0;entryDy=0;" parent="WIyWlLk6GJQsqaUBKTNV-1" source="U3sLYM4btcDTQjtSk9sM-1" target="U3sLYM4btcDTQjtSk9sM-2" edge="1">
          <mxGeometry relative="1" as="geometry" />
        </mxCell>
        <mxCell id="U3sLYM4btcDTQjtSk9sM-1" value="Start" style="ellipse;whiteSpace=wrap;html=1;" parent="WIyWlLk6GJQsqaUBKTNV-1" vertex="1">
          <mxGeometry x="224" y="30" width="120" height="80" as="geometry" />
        </mxCell>
        <mxCell id="U3sLYM4btcDTQjtSk9sM-17" style="edgeStyle=orthogonalEdgeStyle;rounded=0;orthogonalLoop=1;jettySize=auto;html=1;entryX=0.5;entryY=0;entryDx=0;entryDy=0;" parent="WIyWlLk6GJQsqaUBKTNV-1" source="U3sLYM4btcDTQjtSk9sM-2" target="U3sLYM4btcDTQjtSk9sM-3" edge="1">
          <mxGeometry relative="1" as="geometry" />
        </mxCell>
        <mxCell id="U3sLYM4btcDTQjtSk9sM-2" value="minute,basicPrice=25000" style="shape=parallelogram;perimeter=parallelogramPerimeter;whiteSpace=wrap;html=1;fixedSize=1;" parent="WIyWlLk6GJQsqaUBKTNV-1" vertex="1">
          <mxGeometry x="154" y="160" width="260" height="60" as="geometry" />
        </mxCell>
        <mxCell id="U3sLYM4btcDTQjtSk9sM-15" value="False" style="edgeStyle=orthogonalEdgeStyle;rounded=0;orthogonalLoop=1;jettySize=auto;html=1;entryX=0.5;entryY=0;entryDx=0;entryDy=0;" parent="WIyWlLk6GJQsqaUBKTNV-1" source="U3sLYM4btcDTQjtSk9sM-3" target="U3sLYM4btcDTQjtSk9sM-6" edge="1">
          <mxGeometry relative="1" as="geometry" />
        </mxCell>
        <mxCell id="U3sLYM4btcDTQjtSk9sM-16" value="True" style="edgeStyle=orthogonalEdgeStyle;rounded=0;orthogonalLoop=1;jettySize=auto;html=1;entryX=0;entryY=0.5;entryDx=0;entryDy=0;" parent="WIyWlLk6GJQsqaUBKTNV-1" source="U3sLYM4btcDTQjtSk9sM-3" target="U3sLYM4btcDTQjtSk9sM-7" edge="1">
          <mxGeometry relative="1" as="geometry" />
        </mxCell>
        <mxCell id="U3sLYM4btcDTQjtSk9sM-3" value="minute&amp;lt;=50" style="rhombus;whiteSpace=wrap;html=1;" parent="WIyWlLk6GJQsqaUBKTNV-1" vertex="1">
          <mxGeometry x="180" y="260" width="150" height="130" as="geometry" />
        </mxCell>
        <mxCell id="U3sLYM4btcDTQjtSk9sM-11" value="False" style="edgeStyle=orthogonalEdgeStyle;rounded=0;orthogonalLoop=1;jettySize=auto;html=1;" parent="WIyWlLk6GJQsqaUBKTNV-1" source="U3sLYM4btcDTQjtSk9sM-5" target="U3sLYM4btcDTQjtSk9sM-10" edge="1">
          <mxGeometry relative="1" as="geometry">
            <Array as="points">
              <mxPoint x="265" y="743" />
              <mxPoint x="330" y="743" />
            </Array>
          </mxGeometry>
        </mxCell>
        <mxCell id="U3sLYM4btcDTQjtSk9sM-12" value="True" style="edgeStyle=orthogonalEdgeStyle;rounded=0;orthogonalLoop=1;jettySize=auto;html=1;" parent="WIyWlLk6GJQsqaUBKTNV-1" source="U3sLYM4btcDTQjtSk9sM-5" target="U3sLYM4btcDTQjtSk9sM-9" edge="1">
          <mxGeometry relative="1" as="geometry" />
        </mxCell>
        <mxCell id="U3sLYM4btcDTQjtSk9sM-5" value="minute&amp;lt;=200" style="rhombus;whiteSpace=wrap;html=1;" parent="WIyWlLk6GJQsqaUBKTNV-1" vertex="1">
          <mxGeometry x="190" y="585" width="150" height="130" as="geometry" />
        </mxCell>
        <mxCell id="U3sLYM4btcDTQjtSk9sM-13" value="False" style="edgeStyle=orthogonalEdgeStyle;rounded=0;orthogonalLoop=1;jettySize=auto;html=1;" parent="WIyWlLk6GJQsqaUBKTNV-1" source="U3sLYM4btcDTQjtSk9sM-6" target="U3sLYM4btcDTQjtSk9sM-5" edge="1">
          <mxGeometry relative="1" as="geometry" />
        </mxCell>
        <mxCell id="U3sLYM4btcDTQjtSk9sM-14" value="True" style="edgeStyle=orthogonalEdgeStyle;rounded=0;orthogonalLoop=1;jettySize=auto;html=1;entryX=0;entryY=0.75;entryDx=0;entryDy=0;" parent="WIyWlLk6GJQsqaUBKTNV-1" source="U3sLYM4btcDTQjtSk9sM-6" target="U3sLYM4btcDTQjtSk9sM-8" edge="1">
          <mxGeometry relative="1" as="geometry" />
        </mxCell>
        <mxCell id="U3sLYM4btcDTQjtSk9sM-6" value="minute&amp;lt;=150" style="rhombus;whiteSpace=wrap;html=1;" parent="WIyWlLk6GJQsqaUBKTNV-1" vertex="1">
          <mxGeometry x="190" y="430" width="150" height="130" as="geometry" />
        </mxCell>
        <mxCell id="U3sLYM4btcDTQjtSk9sM-7" value="phonePrice=basicPrice+minute*600" style="shape=parallelogram;perimeter=parallelogramPerimeter;whiteSpace=wrap;html=1;fixedSize=1;" parent="WIyWlLk6GJQsqaUBKTNV-1" vertex="1">
          <mxGeometry x="440" y="290" width="240" height="80" as="geometry" />
        </mxCell>
        <mxCell id="U3sLYM4btcDTQjtSk9sM-8" value="phonePrice=basicPrice+50*600+(minute-50)*400" style="shape=parallelogram;perimeter=parallelogramPerimeter;whiteSpace=wrap;html=1;fixedSize=1;" parent="WIyWlLk6GJQsqaUBKTNV-1" vertex="1">
          <mxGeometry x="420" y="440" width="300" height="80" as="geometry" />
        </mxCell>
        <mxCell id="U3sLYM4btcDTQjtSk9sM-9" value="phonePrice=basicPrice+50*600+100*400+(minute-150)*200" style="shape=parallelogram;perimeter=parallelogramPerimeter;whiteSpace=wrap;html=1;fixedSize=1;" parent="WIyWlLk6GJQsqaUBKTNV-1" vertex="1">
          <mxGeometry x="414" y="607.5" width="366" height="72.5" as="geometry" />
        </mxCell>
        <mxCell id="U3sLYM4btcDTQjtSk9sM-10" value="phonePrice=basicPrice+50*600+100*400+50*200+(minute-200)*100" style="shape=parallelogram;perimeter=parallelogramPerimeter;whiteSpace=wrap;html=1;fixedSize=1;" parent="WIyWlLk6GJQsqaUBKTNV-1" vertex="1">
          <mxGeometry x="150" y="770" width="360" height="70" as="geometry" />
        </mxCell>
      </root>
    </mxGraphModel>
  </diagram>
</mxfile>
